<?xml version="1.0" encoding="UTF-8"?>
<svg xmlns="http://www.w3.org/2000/svg" viewBox="0 0 1484.17 842.81">
  <defs>
    <style>
      .cls-1, .cls-2 {
        fill: #fff;
      }

      .cls-2 {
        fill-rule: evenodd;
      }

      .cls-3 {
        isolation: isolate;
      }

      .cls-4 {
        mix-blend-mode: screen;
      }
    </style>
  </defs>
  <g class="cls-3">
    <g id="Layer_1" data-name="Layer 1">
      <g>
        <g>
          <g>
            <path class="cls-1" d="M786.22,446.58c23.44,22.66,51.38,33.56,85.41,30.04l-64.34,104.91,51.63.58,98.61-162c5.62-9.23,8.42-19.69,13.97-30.68.85,11.28-3.43,22.67-9.43,32.5l-101.16,165.71-62.64-.65,63.24-103.1-41.11-7.92-66.32,108.42-56.64-.72,62.89-103.65c-48.5,1.97-89.43-27.07-107.07-67.41-19.54-44.67-7.54-94.29,25.89-125.86,34.31-32.4,84.19-39.36,127.46-18.62,34.3-20.24,92.62-18.29,125.16,10.02,17.26,15.02,38.38,35.17,36.45,60.24-23.38-67.07-93.39-98.55-153.61-68.48,15.01,9.52,25.28,20.52,34.85,32.04,26.75.29,58.3,6.51,68.15,35.78-20.22-20.25-38.48-36.1-66.55-28.28,22.36,36.26,21.72,81.52.61,117.28,33.41,7.14,52.67-11.33,70.33-37.29-9.68,38.19-54.58,53.89-88.13,37.87-34.79-16.62-49.94-59.09-27.34-92.88-8.72-12.1-20.7-20.27-36.25-25.9-29.69,43.4-23.25,100.15,15.96,138.07ZM765.61,305.88c-39.02-5.87-72.76,24.19-72.86,61.87-.1,37.43,33.1,69.03,73.37,62.34-24.19-34.96-23.29-90-.51-124.21ZM810.58,397.4c12.28-21.81,10.33-42.92-1.13-61.04-11.03,20.04-12.48,44.67,1.13,61.04Z"/>
            <g>
              <g>
                <path class="cls-1" d="M980.03,401.57c.87-1.54,2.06-2.75,3.57-3.62,1.51-.87,3.18-1.31,5.02-1.31,2.16,0,4.04.52,5.65,1.56s2.79,2.52,3.52,4.43h-3.1c-.55-1.19-1.34-2.11-2.37-2.76-1.03-.64-2.27-.97-3.71-.97s-2.62.32-3.72.97c-1.1.64-1.96,1.56-2.59,2.74-.62,1.18-.94,2.57-.94,4.16s.31,2.95.94,4.13c.62,1.18,1.49,2.1,2.59,2.74,1.1.64,2.34.97,3.72.97s2.68-.32,3.71-.95c1.03-.63,1.82-1.55,2.37-2.74h3.1c-.74,1.89-1.91,3.36-3.52,4.39s-3.5,1.55-5.65,1.55c-1.84,0-3.51-.43-5.02-1.29-1.51-.86-2.7-2.06-3.57-3.59-.87-1.53-1.31-3.27-1.31-5.2s.44-3.67,1.31-5.21Z"/>
                <path class="cls-1" d="M1004.45,415.97c-1.18-.66-2.11-1.61-2.79-2.83-.67-1.22-1.01-2.64-1.01-4.25s.35-3,1.04-4.22c.69-1.22,1.63-2.16,2.83-2.81,1.19-.65,2.53-.98,4.01-.98s2.81.33,4.01.98c1.19.65,2.14,1.59,2.83,2.8.69,1.21,1.04,2.62,1.04,4.23s-.36,3.03-1.07,4.25c-.71,1.22-1.67,2.16-2.88,2.83-1.21.66-2.56.99-4.04.99s-2.78-.33-3.96-.99ZM1011.03,414.04c.81-.44,1.47-1.09,1.97-1.96.5-.87.75-1.93.75-3.18s-.25-2.31-.74-3.18c-.49-.87-1.14-1.52-1.93-1.95s-1.66-.64-2.59-.64-1.81.21-2.6.64c-.79.43-1.42,1.08-1.89,1.95-.47.87-.71,1.93-.71,3.18s.23,2.34.7,3.21c.46.87,1.08,1.52,1.86,1.95.78.43,1.63.64,2.56.64s1.8-.22,2.61-.65Z"/>
                <path class="cls-1" d="M1022.4,395.68v21.03h-2.59v-21.03h2.59Z"/>
                <path class="cls-1" d="M1029.63,415.97c-1.18-.66-2.11-1.61-2.79-2.83-.67-1.22-1.01-2.64-1.01-4.25s.35-3,1.04-4.22c.69-1.22,1.63-2.16,2.83-2.81,1.19-.65,2.53-.98,4.01-.98s2.81.33,4.01.98c1.19.65,2.14,1.59,2.83,2.8.69,1.21,1.04,2.62,1.04,4.23s-.36,3.03-1.07,4.25c-.71,1.22-1.67,2.16-2.88,2.83-1.21.66-2.56.99-4.04.99s-2.78-.33-3.96-.99ZM1036.21,414.04c.81-.44,1.47-1.09,1.97-1.96.5-.87.75-1.93.75-3.18s-.25-2.31-.74-3.18c-.49-.87-1.14-1.52-1.93-1.95-.79-.43-1.66-.64-2.59-.64s-1.81.21-2.6.64-1.42,1.08-1.89,1.95c-.47.87-.71,1.93-.71,3.18s.23,2.34.7,3.21c.46.87,1.08,1.52,1.86,1.95.78.43,1.63.64,2.56.64s1.8-.22,2.61-.65Z"/>
                <path class="cls-1" d="M1057.18,402.57c1.17,1.15,1.76,2.8,1.76,4.96v9.18h-2.56v-8.81c0-1.55-.39-2.74-1.17-3.57-.78-.82-1.84-1.24-3.18-1.24s-2.45.43-3.25,1.28c-.81.85-1.21,2.09-1.21,3.72v8.61h-2.59v-15.57h2.59v2.22c.51-.8,1.21-1.41,2.09-1.85.88-.44,1.85-.65,2.91-.65,1.89,0,3.43.57,4.6,1.72Z"/>
                <path class="cls-1" d="M1063.26,398.09c-.34-.34-.51-.76-.51-1.25s.17-.91.51-1.25c.34-.34.76-.51,1.25-.51s.88.17,1.21.51c.33.34.5.76.5,1.25s-.17.91-.5,1.25c-.33.34-.73.51-1.21.51s-.91-.17-1.25-.51ZM1065.76,401.13v15.57h-2.59v-15.57h2.59Z"/>
                <path class="cls-1" d="M1070.16,404.67c.64-1.2,1.53-2.14,2.66-2.8s2.38-.99,3.77-.99,2.55.29,3.55.88c1,.59,1.75,1.33,2.25,2.22v-2.84h2.61v15.57h-2.61v-2.9c-.51.91-1.27,1.66-2.29,2.26-1.01.6-2.19.9-3.54.9s-2.63-.34-3.75-1.02c-1.12-.68-2-1.64-2.64-2.87-.64-1.23-.97-2.63-.97-4.21s.32-2.99.97-4.19ZM1081.67,405.82c-.47-.87-1.11-1.54-1.92-2-.8-.46-1.69-.7-2.66-.7s-1.85.23-2.64.68c-.8.45-1.43,1.12-1.9,1.99-.47.87-.71,1.89-.71,3.07s.24,2.23.71,3.11,1.11,1.55,1.9,2.02c.79.46,1.68.7,2.64.7s1.85-.23,2.66-.7c.81-.46,1.44-1.14,1.92-2.02s.71-1.91.71-3.08-.24-2.2-.71-3.07Z"/>
                <path class="cls-1" d="M1117.05,397.04v19.66h-2.59v-14.66l-6.54,14.66h-1.82l-6.56-14.69v14.69h-2.59v-19.66h2.78l7.27,16.25,7.27-16.25h2.76Z"/>
                <path class="cls-1" d="M1135.55,409.89h-12.45c.09,1.53.62,2.73,1.58,3.59.96.86,2.12,1.29,3.48,1.29,1.12,0,2.05-.26,2.8-.78.75-.52,1.27-1.22,1.58-2.09h2.79c-.42,1.5-1.25,2.71-2.5,3.65-1.25.94-2.8,1.41-4.66,1.41-1.48,0-2.8-.33-3.96-.99s-2.08-1.61-2.74-2.83c-.66-1.22-1-2.64-1-4.25s.32-3.02.97-4.23c.64-1.21,1.55-2.15,2.71-2.8,1.17-.65,2.5-.98,4.02-.98s2.79.32,3.92.97c1.14.64,2.01,1.53,2.63,2.66.62,1.13.92,2.4.92,3.82,0,.49-.03,1.01-.09,1.56ZM1132.31,405.24c-.44-.71-1.03-1.25-1.78-1.62-.75-.37-1.58-.55-2.49-.55-1.31,0-2.42.42-3.34,1.25-.92.83-1.45,1.99-1.58,3.47h9.83c0-.98-.22-1.83-.65-2.54Z"/>
                <path class="cls-1" d="M1151.23,402.57c1.17,1.15,1.76,2.8,1.76,4.96v9.18h-2.56v-8.81c0-1.55-.39-2.74-1.17-3.57-.78-.82-1.84-1.24-3.18-1.24s-2.45.43-3.25,1.28c-.81.85-1.21,2.09-1.21,3.72v8.61h-2.59v-15.57h2.59v2.22c.51-.8,1.21-1.41,2.09-1.85.88-.44,1.85-.65,2.91-.65,1.89,0,3.43.57,4.6,1.72Z"/>
                <path class="cls-1" d="M1169.42,402.57c1.17,1.15,1.76,2.8,1.76,4.96v9.18h-2.56v-8.81c0-1.55-.39-2.74-1.17-3.57-.78-.82-1.84-1.24-3.18-1.24s-2.45.43-3.25,1.28c-.8.85-1.21,2.09-1.21,3.72v8.61h-2.59v-15.57h2.59v2.22c.51-.8,1.21-1.41,2.09-1.85.88-.44,1.85-.65,2.91-.65,1.89,0,3.43.57,4.6,1.72Z"/>
                <path class="cls-1" d="M1178.24,415.97c-1.18-.66-2.11-1.61-2.79-2.83-.67-1.22-1.01-2.64-1.01-4.25s.35-3,1.04-4.22c.69-1.22,1.63-2.16,2.83-2.81,1.19-.65,2.53-.98,4.01-.98s2.81.33,4.01.98c1.19.65,2.14,1.59,2.83,2.8.69,1.21,1.04,2.62,1.04,4.23s-.36,3.03-1.07,4.25c-.71,1.22-1.67,2.16-2.88,2.83-1.21.66-2.56.99-4.04.99s-2.78-.33-3.96-.99ZM1184.82,414.04c.81-.44,1.47-1.09,1.97-1.96.5-.87.75-1.93.75-3.18s-.25-2.31-.74-3.18c-.49-.87-1.14-1.52-1.93-1.95s-1.66-.64-2.59-.64-1.81.21-2.6.64c-.79.43-1.42,1.08-1.89,1.95-.47.87-.71,1.93-.71,3.18s.23,2.34.7,3.21c.46.87,1.08,1.52,1.86,1.95.78.43,1.63.64,2.56.64s1.8-.22,2.61-.65Z"/>
              </g>
              <g>
                <path class="cls-1" d="M1218.64,398.52v-2.36h5.34v20.54h-2.61v-18.19h-2.73Z"/>
                <path class="cls-1" d="M1233.06,413.69c.69.59,1.62.88,2.8.88,1.57,0,2.73-.62,3.48-1.85.75-1.23,1.1-3.31,1.07-6.22-.4.85-1.06,1.52-1.99,2-.93.48-1.96.72-3.1.72-1.27,0-2.4-.26-3.4-.78-.99-.52-1.78-1.28-2.34-2.29-.57-1-.85-2.22-.85-3.64,0-2.03.59-3.66,1.76-4.9s2.84-1.86,5-1.86c2.65,0,4.51.86,5.58,2.59s1.61,4.29,1.61,7.7c0,2.39-.21,4.36-.64,5.91-.43,1.55-1.15,2.74-2.16,3.55-1.01.81-2.4,1.22-4.16,1.22-1.93,0-3.44-.52-4.52-1.56-1.08-1.04-1.7-2.37-1.85-3.98h2.39c.19,1.08.63,1.91,1.32,2.5ZM1238.87,405.87c.81-.79,1.22-1.85,1.22-3.2,0-1.42-.4-2.57-1.19-3.44-.8-.87-1.91-1.31-3.35-1.31-1.33,0-2.38.42-3.17,1.25-.79.83-1.18,1.93-1.18,3.3s.39,2.49,1.17,3.32c.78.83,1.9,1.25,3.38,1.25,1.27,0,2.31-.39,3.13-1.18Z"/>
                <path class="cls-1" d="M1251.66,409.87c1.36-1.24,2.51-2.54,3.45-3.89.94-1.35,1.41-2.69,1.41-3.99,0-1.23-.3-2.2-.89-2.91-.6-.71-1.56-1.07-2.88-1.07s-2.29.4-3,1.21c-.71.81-1.09,1.88-1.15,3.23h-2.5c.08-2.12.72-3.76,1.93-4.92,1.21-1.16,2.78-1.73,4.69-1.73s3.5.54,4.65,1.62c1.15,1.08,1.72,2.57,1.72,4.46,0,1.57-.47,3.1-1.41,4.59-.94,1.49-2,2.79-3.2,3.92-1.19,1.13-2.72,2.44-4.57,3.94h9.77v2.16h-13.67v-1.85c2.41-1.93,4.29-3.52,5.66-4.76Z"/>
                <path class="cls-1" d="M1275.3,398.18l-7.9,18.53h-2.61l8.01-18.27h-10.97v-2.22h13.47v1.96Z"/>
                <path class="cls-1" d="M1289.39,405.2v2.19h-11.34v-2.19h11.34Z"/>
                <path class="cls-1" d="M1299.17,409.87c1.36-1.24,2.51-2.54,3.45-3.89.94-1.35,1.41-2.69,1.41-3.99,0-1.23-.3-2.2-.89-2.91-.6-.71-1.56-1.07-2.88-1.07s-2.29.4-3,1.21c-.71.81-1.09,1.88-1.15,3.23h-2.5c.08-2.12.72-3.76,1.93-4.92,1.21-1.16,2.78-1.73,4.69-1.73s3.5.54,4.65,1.62c1.15,1.08,1.72,2.57,1.72,4.46,0,1.57-.47,3.1-1.41,4.59-.94,1.49-2,2.79-3.2,3.92-1.19,1.13-2.72,2.44-4.57,3.94h9.77v2.16h-13.67v-1.85c2.41-1.93,4.29-3.52,5.66-4.76Z"/>
                <path class="cls-1" d="M1311.76,398.59c1.06-1.83,2.92-2.74,5.57-2.74s4.48.91,5.54,2.74c1.06,1.83,1.59,4.37,1.59,7.63s-.53,5.89-1.59,7.73c-1.06,1.84-2.91,2.76-5.54,2.76s-4.51-.92-5.57-2.76c-1.06-1.84-1.59-4.41-1.59-7.73s.53-5.8,1.59-7.63ZM1321.58,402.03c-.22-1.15-.66-2.07-1.34-2.77-.67-.7-1.64-1.05-2.91-1.05s-2.27.35-2.94,1.05c-.67.7-1.12,1.62-1.33,2.77-.22,1.15-.33,2.54-.33,4.19s.11,3.14.33,4.29c.22,1.16.66,2.08,1.33,2.79.67.7,1.65,1.05,2.94,1.05s2.24-.35,2.91-1.05c.67-.7,1.12-1.63,1.34-2.79.22-1.16.33-2.59.33-4.29s-.11-3.04-.33-4.19Z"/>
                <path class="cls-1" d="M1333.35,409.87c1.36-1.24,2.51-2.54,3.45-3.89.94-1.35,1.41-2.69,1.41-3.99,0-1.23-.3-2.2-.9-2.91-.6-.71-1.56-1.07-2.88-1.07s-2.29.4-3,1.21c-.71.81-1.09,1.88-1.15,3.23h-2.5c.08-2.12.72-3.76,1.93-4.92,1.21-1.16,2.77-1.73,4.69-1.73s3.5.54,4.65,1.62c1.15,1.08,1.72,2.57,1.72,4.46,0,1.57-.47,3.1-1.41,4.59-.94,1.49-2,2.79-3.2,3.92-1.19,1.13-2.72,2.44-4.58,3.94h9.78v2.16h-13.67v-1.85c2.41-1.93,4.29-3.52,5.65-4.76Z"/>
                <path class="cls-1" d="M1351.91,397.89c-1.69,0-2.95.65-3.78,1.95-.83,1.3-1.24,3.43-1.22,6.41.44-.98,1.16-1.76,2.17-2.32,1.01-.56,2.14-.84,3.4-.84,1.95,0,3.51.61,4.67,1.82s1.75,2.89,1.75,5.03c0,1.29-.25,2.44-.75,3.47s-1.26,1.84-2.27,2.44c-1.01.61-2.24.91-3.68.91-1.95,0-3.48-.44-4.58-1.31-1.1-.87-1.87-2.07-2.3-3.61-.44-1.53-.65-3.43-.65-5.68,0-6.95,2.42-10.43,7.27-10.43,1.86,0,3.31.5,4.38,1.51,1.06,1,1.69,2.27,1.88,3.81h-2.39c-.42-2.1-1.71-3.15-3.89-3.15ZM1349.64,405.78c-.72.33-1.3.83-1.75,1.51-.45.67-.67,1.49-.67,2.46,0,1.44.42,2.61,1.25,3.51.83.9,2.03,1.35,3.58,1.35,1.33,0,2.38-.41,3.17-1.24.79-.82,1.18-1.94,1.18-3.34,0-1.48-.38-2.64-1.14-3.48-.76-.84-1.87-1.26-3.32-1.26-.81,0-1.58.17-2.3.5Z"/>
              </g>
            </g>
          </g>
          <g>
            <path class="cls-1" d="M1004.26,379.91l-2.88-8.57h-20.58l-3.12,8.57h-16.26l23.78-59.26h11.93l23.54,59.26h-16.42ZM991.28,339.15l-.24-.08-6.09,20.26h12.41l-6.09-20.18Z"/>
            <path class="cls-1" d="M1054.06,379.91v-24.66c0-6.01-2.08-8.81-6.97-8.81-5.37,0-7.61,2.96-7.61,8.97v24.5h-13.29v-44.44h12.41v4.72h.16c2.8-4.56,6.73-6.25,12.09-6.25,8.01,0,16.5,4.48,16.5,17.62v28.35h-13.29Z"/>
            <path class="cls-1" d="M1076.8,330.74v-10.09h13.29v10.09h-13.29ZM1076.8,379.91v-44.44h13.29v44.44h-13.29Z"/>
            <path class="cls-1" d="M1112.19,379.91l-15.94-44.44h13.77l8.49,27.71h.16l8.49-27.71h13.77l-16.02,44.44h-12.73Z"/>
            <path class="cls-1" d="M1156.23,361.73c.72,5.04,4.96,8.41,10.41,8.41,3.6,0,5.93-1.36,8.09-4.16h13.61c-4.24,9.69-12.33,15.38-21.7,15.38-12.81,0-23.54-10.33-23.54-23.54s10.25-23.86,23.3-23.86,23.46,10.49,23.46,24.26c0,1.28-.08,2.32-.32,3.52h-33.31ZM1176.57,352.76c-1.04-4.56-5.04-7.61-10.17-7.61-4.8,0-8.97,2.88-10.01,7.61h20.18Z"/>
            <path class="cls-1" d="M1197.15,379.91v-44.44h12.49v4.72h.16c2.32-4.72,6.01-6.25,11.13-6.25v13.37c-7.93.08-10.49,3.04-10.49,8.09v24.5h-13.29Z"/>
            <path class="cls-1" d="M1246.8,347.96c-.08-2.56-1.92-3.36-4.08-3.36s-3.84,1.28-3.84,2.96c0,2.4,2.16,3.6,8.33,5.21,10.57,2.8,14.01,7.05,14.01,13.53,0,9.29-8.01,15.13-18.1,15.13s-17.14-5.69-18.1-14.73h13.21c.4,2.8,2.4,4.08,5.04,4.08,2.32,0,4.64-1.36,4.64-3.44,0-2.48-1.52-3.76-8.17-5.85-11.21-3.44-14.17-7.85-14.17-13.05,0-8.81,8.25-14.49,17.22-14.49,9.61,0,16.42,5.29,17.06,14.01h-13.05Z"/>
            <path class="cls-1" d="M1301.25,379.91v-4.8h-.16c-1.92,3.92-7.21,6.33-13.05,6.33-13.13,0-22.26-10.33-22.26-23.78s9.53-23.7,22.26-23.7c5.45,0,10.49,2.16,13.05,6.25h.16v-4.72h13.29v44.44h-13.29ZM1301.25,357.65c0-6.25-5.04-11.29-11.29-11.29s-10.89,5.04-10.89,11.45,4.88,11.21,11.05,11.21,11.13-4.96,11.13-11.37Z"/>
            <path class="cls-1" d="M1324.15,379.91v-44.44h12.49v4.72h.16c2.32-4.72,6.01-6.25,11.13-6.25v13.37c-7.93.08-10.49,3.04-10.49,8.09v24.5h-13.29Z"/>
            <path class="cls-1" d="M1354.97,330.74v-10.09h13.29v10.09h-13.29ZM1354.97,379.91v-44.44h13.29v44.44h-13.29Z"/>
            <path class="cls-1" d="M1399.74,381.27c-13.53,0-23.94-10.01-23.94-23.62s10.65-23.62,23.94-23.62,23.94,10.01,23.94,23.46-10.57,23.78-23.94,23.78ZM1410.39,357.65c0-5.93-4.48-11.21-10.73-11.21-5.85,0-10.57,5.12-10.57,11.21s4.64,11.21,10.65,11.21,10.65-5.29,10.65-11.21Z"/>
          </g>
        </g>
        <g class="cls-4">
          <polygon class="cls-2" points="179.62 370.2 227.37 254.65 274.03 349.39 243.29 356.51 243.29 377.32 210.9 383.89 210.9 364.18 179.62 370.2"/>
          <polygon class="cls-2" points="189.5 285.87 198.28 301.74 168.64 378.42 202.67 372.39 203.77 392.66 238.9 385.53 242.74 395.94 209.26 402.51 209.26 423.87 170.29 431.54 170.29 411.27 134.06 417.3 189.5 285.87"/>
          <path class="cls-2" d="M398.07,504.92l3.29-8.21h30.19l-16.47,30.67s1.1,1.64,8.23,1.64,10.43-1.64,10.43-1.64l-2.74,8.21h-36.23l17.56-31.22s-1.65-1.63-6.58-1.63c-4.39.54-7.68,2.18-7.68,2.18h0ZM362.39,504.37v-4.93s7.13.55,10.43-6.02c3.3-6.57,3.85-9.32,3.85-9.32h4.39v12.6h9.33v9.86s-1.1-2.74-3.84-2.74h-5.49v19.17s.55,5.48,4.39,6.03h4.94l-3.84,6.57s-2.74,2.19-8.78,1.64c-5.49-1.09-10.43-4.38-10.43-12.6v-20.26h-4.94ZM306.4,504.37v-4.93s7.14.55,10.44-6.02c3.84-6.57,3.84-9.32,3.84-9.32h4.94v12.6h8.79v9.86s-1.1-2.74-3.85-2.74h-4.94v19.17s0,5.48,3.84,6.03h4.95l-3.3,6.57s-2.74,2.19-8.78,1.64c-6.03-1.09-10.43-4.38-10.43-12.6v-20.26h-5.49ZM349.22,478.64c4.4,0,7.68,3.29,7.68,7.67s-3.29,7.67-7.68,7.67c-3.84,0-7.14-3.29-7.14-7.67s3.3-7.67,7.14-7.67h0ZM340.44,496.16h9.88c5.49-.55,6.58-.55,6.58-.55,0,0,0-.54,0,1.1,0,2.19.55,13.14.55,33.95,0,0-.55,1.64.55,3.29,1.1,1.1,2.19,1.64,2.19,1.64h-19.75s2.19-1.1,2.74-3.29v-33.4s0-.55-1.1-1.64c-1.09-.55-1.64-1.1-1.64-1.1h0ZM457.89,502.19c3.3,0,6.04,3.28,6.04,7.66h-11.53c0-4.38,2.75-7.66,5.49-7.66h0ZM451.31,516.42h26.35s-.55-20.81-19.76-20.81-22.51,18.07-19.21,27.93c3.3,9.86,12.62,13.15,21.96,13.15s13.17-2.74,13.17-2.74l4.39-8.21s-7.69,3.83-14.82,3.83-10.43-4.94-11.53-8.23c-1.09-2.73-.55-4.92-.55-4.92h0ZM480.95,496.16s3.84,0,9.88-.55c5.49,0,6.59-.54,6.59-.54v6.02c3.29-3.29,7.13-7.12,12.62-4.93l-.55,9.86c-6.04-1.65-12.07.55-12.07,5.48v19.17s0,2.19,1.09,3.29c1.1,1.1,2.2,1.64,2.2,1.64h-19.76s2.74-1.1,2.74-2.74v-33.95s0-.55-1.09-1.64c-1.09-1.1-1.65-1.1-1.65-1.1h0ZM273.47,496.16s3.85,0,9.34-.55c6.03,0,7.13-.54,7.13-.54v1.64c-.55,2.19,0,4.38,0,4.38,3.29-3.29,7.14-7.12,12.62-4.93l-.55,9.86c-6.04-1.65-12.08.55-12.08,5.48v19.17s0,2.19,1.1,3.29c1.09,1.1,1.64,1.64,1.64,1.64h-19.21s2.2-1.1,2.75-2.74v-33.95s0-.55-1.1-1.64c-1.09-1.1-1.65-1.1-1.65-1.1h0ZM248.23,503.28c4.94,0,7.14,3.83,7.68,9.31.55,5.48,0,9.86-1.1,12.6-1.09,2.74-4.39,3.84-5.49,3.84-1.65,0-6.59-1.1-7.13-7.12-1.1-6.03-1.1-10.41,0-13.69.54-2.74,3.29-4.93,6.03-4.93h0ZM248.78,495.07c12.63,0,22.51,9.3,22.51,21.35s-9.88,20.81-22.51,20.81-21.95-9.31-21.95-20.81,9.88-21.35,21.95-21.35h0ZM177.97,479.18s4.39-.54,9.88-.54,6.59-1.1,6.59-1.1v15.88c0,3.29.56,6.02.56,6.02,0,0,4.94-3.83,10.43-3.83s14.27,3.29,14.27,13.7c0,10.41,0,19.71,0,19.71,0,0-.54,2.19,1.1,3.83,1.1,1.64,1.64,2.74,1.64,2.74h-19.21s2.2-1.1,2.2-2.74c.55-1.64.55-4.38.55-4.38v-18.62s0-6.02-6.04-6.02c-5.49,0-4.94,6.02-4.94,6.02v18.62s0,2.74.55,4.38c1.1,1.64,2.2,2.74,2.2,2.74h-19.76s2.75-1.64,2.75-4.38c.55-2.74,0-6.03,0-6.03v-42.17s0-1.09-1.1-2.19c-1.1-1.65-1.65-1.65-1.65-1.65h0ZM166.45,490.68l-.55-10.41s-14.82-4.93-28.54,1.65c-13.17,6.57-14.82,21.36-14.27,29.02.55,7.67,6.58,26.83,34.03,25.74,10.98,0,13.73-2.74,13.73-2.74l3.29-9.86s-7.14,4.93-17.57,4.93-17.56-9.31-17.56-22.45,5.48-19.71,14.26-19.71,13.18,3.83,13.18,3.83h0Z"/>
          <path class="cls-2" d="M172.49,443.59c7.68,0,14.27,5.48,14.27,13.15,0,7.12-6.59,12.6-14.27,12.6s-14.27-5.48-14.27-12.6c0-7.67,6.58-13.15,14.27-13.15h0ZM171.94,448.51c3.29,0,4.39,2.74,4.94,6.03,0,3.28,0,5.48-.55,7.66-1.09,1.65-2.74,2.2-3.84,2.2s-3.84-.55-4.39-4.38c-.55-3.84-.55-6.58,0-8.22.55-2.19,2.19-3.29,3.84-3.29h0ZM203.22,443.59c7.68,0,14.27,5.48,14.27,13.15,0,7.12-6.59,12.6-14.27,12.6s-14.27-5.48-14.27-12.6c0-7.67,6.58-13.15,14.27-13.15h0ZM202.67,448.51c3.3,0,4.94,2.74,4.94,6.03s0,5.48-.56,7.66c-1.09,1.65-2.74,2.2-3.84,2.2s-3.85-.55-4.39-4.38c-.55-3.84-.55-6.58,0-8.22.54-2.19,2.19-3.29,3.84-3.29h0ZM151.08,440.31l-.55-6.58s-9.33-3.28-17.57,1.1c-8.78,3.83-9.33,13.15-9.33,18.07.55,4.93,4.39,16.98,21.41,16.43,7.13,0,8.78-1.64,8.78-1.64l2.19-6.58s-4.39,3.3-10.97,3.3c-7.14,0-11.53-6.03-11.53-14.24,0-7.66,3.84-12.05,9.33-12.05s8.24,2.2,8.24,2.2h0ZM278.97,444.14h6.04c3.84,0,4.39-.55,4.39-.55v1.09c0,1.1.55,2.19.55,2.19,1.64-1.64,4.39-3.83,7.68-2.73v6.57c-4.39-1.09-7.68,0-7.68,2.74v12.6s0,1.09.55,1.65c.55.54,1.09,1.09,1.09,1.09h-12.62s1.64-.55,1.64-1.65v-21.35s0-.55-.55-1.1l-1.09-.54h0ZM221.33,444.14h4.94c2.2,0,4.39-.55,4.39-.55v2.74s4.39-2.74,7.69-2.74c3.84,0,10.42,2.74,10.42,12.6s-6.58,12.6-10.42,13.15h-3.85l-1.65-3.84s7.13.55,7.13-8.76-8.78-10.41-8.78-4.39v23s0,1.09.55,2.19c.54,1.1,1.64,1.64,1.64,1.64h-12.62s1.64-1.09,1.64-2.74v-28.46s0-1.11-.54-2.2c-.55-1.1-.55-1.64-.55-1.64h0ZM259.76,456.18h16.47s0-13.15-12.08-13.15-14.27,12.05-12.07,18.07c2.2,6.03,7.69,8.23,13.72,8.23,5.49,0,8.23-1.64,8.23-1.64l2.74-5.49s-4.94,2.75-9.33,2.75-6.59-3.29-7.14-5.48c-.55-1.65-.55-3.29-.55-3.29h0ZM264.14,447.42c2.2,0,3.3,2.19,3.3,4.92h-6.59c0-2.73,1.1-4.92,3.29-4.92h0ZM305.31,449.06l3.84-4.93s4.39-1.1,8.23-.55c4.39,1.09,6.58,4.39,6.58,9.86-.55,4.93-.55,8.22.55,9.86.55,1.65,3.85,1.65,3.85,1.65l-2.2,3.28s-6.58,1.64-9.32-2.19c-2.75-3.28-1.65-8.76-1.65-8.76,0,0-5.49,1.09-5.49,4.38s3.84,3.29,3.84,3.29l-2.19,3.83s-10.43,1.64-10.98-6.58c-.55-8.76,10.98-8.76,12.08-8.76,1.09-.55,2.74-.55,2.74-3.29,0-2.18-2.74-2.73-6.04-2.18-2.75,1.09-3.84,1.09-3.84,1.09h0ZM395.33,449.06l3.29-4.93s4.4-1.1,8.79-.55c4.39,1.09,6.58,4.39,6.04,9.86,0,4.93-.56,8.22.55,9.86,1.09,1.65,3.84,1.65,3.84,1.65l-2.19,3.28s-6.59,1.64-9.33-2.19c-2.75-3.28-1.64-8.76-1.64-8.76,0,0-5.49,1.09-5.49,4.38s4.39,3.29,4.39,3.29l-2.19,3.83s-10.43,1.64-10.98-6.58c-.55-8.76,10.43-8.76,11.53-8.76,1.1-.55,3.29-.55,3.29-3.29-.54-2.18-3.29-2.73-6.03-2.18-3.29,1.09-3.84,1.09-3.84,1.09h0ZM328.91,449.06v-2.74s4.39,0,6.58-3.83c2.2-4.39,2.75-6.03,2.75-6.03h2.74v7.67h6.04v6.57s-1.1-1.64-2.74-1.64h-3.3v11.5s0,3.84,2.74,3.84h3.3l-2.19,4.38s-2.2,1.09-6.04.55c-3.29-.55-6.58-2.74-6.58-7.67v-12.6h-3.3ZM349.77,444.14h6.59c3.29,0,4.4-.55,4.4-.55v22.45s0,1.09.55,1.65c.55.54,1.1,1.09,1.1,1.09h-12.62s1.65-.55,1.65-1.65c.55-1.09,0-2.73,0-2.73v-18.62s0-.55-.55-1.1c-.55-.54-1.1-.54-1.1-.54h0ZM355.8,433.18c2.75,0,4.39,1.64,4.39,4.38,0,2.19-1.64,4.39-4.39,4.39-2.19,0-3.84-2.2-3.84-4.39,0-2.73,1.65-4.38,3.84-4.38h0ZM363.49,444.14h5.49c3.29,0,3.29-1.1,3.29-1.1l6.04,15.34,4.94-10.95s0-1.65-.55-2.2c-.55-.55-1.1-1.09-1.1-1.09l7.14-.55-9.34,23.54s-.55,1.1-.55,1.65c.55.55,0,0,0,0,0,0-4.94,1.09-8.23-7.12-3.29-8.22-5.49-13.69-5.49-13.69,0,0-.55-3.3-1.64-3.84h0Z"/>
          <path class="cls-2" d="M289.39,542.16c-24.15,27.93-59.83,46.01-99.89,46.01-72.45,0-131.72-59.14-131.72-131.98,0-64.08,46.1-117.2,106.48-129.25v2.19c-49.4,14.24-85.08,59.69-85.08,113.37,0,65.71,52.69,118.84,118.01,118.84,23.6,0,46.1-7.12,64.22-19.17h27.99Z"/>
        </g>
      </g>
    </g>
  </g>
</svg>