<?xml version="1.0" encoding="UTF-8"?>
<svg id="Layer_1" data-name="Layer 1" xmlns="http://www.w3.org/2000/svg" viewBox="0 0 384.9 409.91">
  <defs>
    <style>
      .cls-1 {
        fill: #fff;
      }
    </style>
  </defs>
  <g id="c">
    <g>
      <rect class="cls-1" x="164.56" y="43.17" width="11.15" height="11.17" transform="translate(218.89 -121.39) rotate(90)"/>
      <rect class="cls-1" x="209.19" y="43.17" width="11.15" height="11.17" transform="translate(263.51 -166.01) rotate(90)"/>
      <rect class="cls-1" x="186.88" y="43.17" width="11.15" height="11.17" transform="translate(241.2 -143.7) rotate(90)"/>
      <rect class="cls-1" x="164.56" y="65.48" width="11.15" height="11.17" transform="translate(241.2 -99.07) rotate(90)"/>
      <rect class="cls-1" x="186.88" y="65.48" width="11.15" height="11.17" transform="translate(263.51 -121.39) rotate(90)"/>
      <rect class="cls-1" x="209.19" y="65.48" width="11.15" height="11.17" transform="translate(285.83 -143.7) rotate(90)"/>
      <rect class="cls-1" x="209.19" y="87.8" width="11.15" height="11.17" transform="translate(308.14 -121.39) rotate(90)"/>
      <rect class="cls-1" x="164.56" y="87.8" width="11.15" height="11.17" transform="translate(263.51 -76.76) rotate(90)"/>
      <rect class="cls-1" x="186.88" y="87.8" width="11.15" height="11.17" transform="translate(285.83 -99.07) rotate(90)"/>
      <rect class="cls-1" x="209.19" y="110.11" width="11.15" height="11.17" transform="translate(330.46 -99.07) rotate(90)"/>
      <rect class="cls-1" x="164.56" y="110.11" width="11.15" height="11.17" transform="translate(285.83 -54.44) rotate(90)"/>
      <rect class="cls-1" x="186.88" y="110.11" width="11.15" height="11.17" transform="translate(308.14 -76.76) rotate(90)"/>
      <rect class="cls-1" x="209.19" y="132.42" width="11.15" height="11.17" transform="translate(352.77 -76.76) rotate(90)"/>
      <rect class="cls-1" x="164.56" y="132.42" width="11.15" height="11.17" transform="translate(308.14 -32.13) rotate(90)"/>
      <rect class="cls-1" x="186.88" y="132.42" width="11.15" height="11.17" transform="translate(330.46 -54.44) rotate(90)"/>
      <rect class="cls-1" x="186.88" y="154.74" width="11.15" height="11.17" transform="translate(352.77 -32.13) rotate(90)"/>
      <rect class="cls-1" x="164.56" y="154.74" width="11.15" height="11.17" transform="translate(330.46 -9.81) rotate(90)"/>
      <rect class="cls-1" x="209.19" y="154.74" width="11.15" height="11.17" transform="translate(375.09 -54.44) rotate(90)"/>
      <rect class="cls-1" x="186.87" y="177.06" width="11.17" height="11.17" transform="translate(375.09 -9.81) rotate(90)"/>
      <rect class="cls-1" x="164.55" y="177.06" width="11.17" height="11.17" transform="translate(352.78 12.51) rotate(90)"/>
      <rect class="cls-1" x="209.18" y="177.06" width="11.17" height="11.17" transform="translate(397.41 -32.12) rotate(90)"/>
      <rect class="cls-1" x="276.12" y="177.06" width="11.17" height="11.17" transform="translate(464.35 -99.06) rotate(90)"/>
      <rect class="cls-1" x="97.6" y="177.07" width="11.17" height="11.15" transform="translate(285.83 79.46) rotate(90)"/>
      <rect class="cls-1" x="186.87" y="199.38" width="11.17" height="11.17" transform="translate(397.41 12.51) rotate(90)"/>
      <rect class="cls-1" x="164.55" y="199.38" width="11.17" height="11.17" transform="translate(375.09 34.82) rotate(90)"/>
      <rect class="cls-1" x="209.18" y="199.38" width="11.17" height="11.17" transform="translate(419.72 -9.81) rotate(90)"/>
      <rect class="cls-1" x="119.92" y="199.38" width="11.17" height="11.17" transform="translate(330.47 79.45) rotate(90)"/>
      <rect class="cls-1" x="253.81" y="199.38" width="11.17" height="11.17" transform="translate(464.35 -54.43) rotate(90)"/>
      <rect class="cls-1" x="276.12" y="199.38" width="11.17" height="11.17" transform="translate(486.67 -76.75) rotate(90)"/>
      <rect class="cls-1" x="97.6" y="199.38" width="11.17" height="11.15" transform="translate(308.14 101.77) rotate(90)"/>
      <rect class="cls-1" x="186.87" y="221.69" width="11.17" height="11.17" transform="translate(419.72 34.82) rotate(90)"/>
      <rect class="cls-1" x="119.92" y="221.69" width="11.17" height="11.17" transform="translate(352.78 101.77) rotate(90)"/>
      <rect class="cls-1" x="142.24" y="221.69" width="11.17" height="11.17" transform="translate(375.09 79.45) rotate(90)"/>
      <rect class="cls-1" x="231.5" y="221.69" width="11.17" height="11.17" transform="translate(464.35 -9.81) rotate(90)"/>
      <rect class="cls-1" x="253.81" y="221.69" width="11.17" height="11.17" transform="translate(486.67 -32.12) rotate(90)"/>
      <rect class="cls-1" x="164.55" y="244" width="11.17" height="11.17" transform="translate(419.72 79.45) rotate(90)"/>
      <rect class="cls-1" x="209.18" y="244" width="11.17" height="11.17" transform="translate(464.35 34.82) rotate(90)"/>
      <rect class="cls-1" x="231.5" y="244" width="11.17" height="11.17" transform="translate(486.66 12.51) rotate(90)"/>
      <rect class="cls-1" x="276.12" y="244" width="11.17" height="11.17" transform="translate(531.29 -32.12) rotate(90)"/>
      <rect class="cls-1" x="142.24" y="244" width="11.17" height="11.17" transform="translate(397.41 101.76) rotate(90)"/>
      <rect class="cls-1" x="97.6" y="244.01" width="11.17" height="11.15" transform="translate(352.77 146.4) rotate(90)"/>
      <rect class="cls-1" x="186.87" y="266.32" width="11.17" height="11.17" transform="translate(464.35 79.45) rotate(90)"/>
      <rect class="cls-1" x="276.12" y="266.32" width="11.17" height="11.17" transform="translate(553.61 -9.81) rotate(90)"/>
      <rect class="cls-1" x="164.55" y="266.32" width="11.17" height="11.17" transform="translate(442.03 101.76) rotate(90)"/>
      <rect class="cls-1" x="119.92" y="266.32" width="11.17" height="11.17" transform="translate(397.41 146.39) rotate(90)"/>
      <rect class="cls-1" x="209.18" y="266.32" width="11.17" height="11.17" transform="translate(486.66 57.13) rotate(90)"/>
      <rect class="cls-1" x="253.81" y="266.32" width="11.17" height="11.17" transform="translate(531.29 12.51) rotate(90)"/>
      <rect class="cls-1" x="97.6" y="266.32" width="11.17" height="11.15" transform="translate(375.08 168.71) rotate(90)"/>
      <rect class="cls-1" x="119.92" y="288.63" width="11.17" height="11.17" transform="translate(419.72 168.71) rotate(90)"/>
      <rect class="cls-1" x="253.81" y="288.63" width="11.17" height="11.17" transform="translate(553.61 34.82) rotate(90)"/>
      <rect class="cls-1" x="142.24" y="288.63" width="11.17" height="11.17" transform="translate(442.03 146.39) rotate(90)"/>
      <rect class="cls-1" x="231.5" y="288.63" width="11.17" height="11.17" transform="translate(531.29 57.13) rotate(90)"/>
      <rect class="cls-1" x="186.87" y="288.63" width="11.17" height="11.17" transform="translate(486.66 101.76) rotate(90)"/>
      <rect class="cls-1" x="164.55" y="310.94" width="11.17" height="11.17" transform="translate(486.66 146.39) rotate(90)"/>
      <rect class="cls-1" x="142.24" y="310.94" width="11.17" height="11.17" transform="translate(464.35 168.71) rotate(90)"/>
      <rect class="cls-1" x="231.5" y="310.94" width="11.17" height="11.17" transform="translate(553.61 79.45) rotate(90)"/>
      <rect class="cls-1" x="209.18" y="310.94" width="11.17" height="11.17" transform="translate(531.29 101.76) rotate(90)"/>
      <rect class="cls-1" x="186.88" y="333.27" width="11.15" height="11.17" transform="translate(531.3 146.4) rotate(90)"/>
      <rect class="cls-1" x="164.56" y="333.27" width="11.15" height="11.17" transform="translate(508.99 168.71) rotate(90)"/>
      <rect class="cls-1" x="209.19" y="333.27" width="11.15" height="11.17" transform="translate(553.61 124.09) rotate(90)"/>
      <rect class="cls-1" x="186.88" y="355.58" width="11.15" height="11.17" transform="translate(553.61 168.71) rotate(90)"/>
      <rect class="cls-1" x="86.45" y="188.22" width="11.15" height="11.17" transform="translate(285.83 101.77) rotate(90)"/>
      <rect class="cls-1" x="86.45" y="255.16" width="11.15" height="11.17" transform="translate(352.77 168.71) rotate(90)"/>
      <rect class="cls-1" x="86.44" y="177.06" width="11.17" height="11.17" transform="translate(274.67 90.62) rotate(90)"/>
      <rect class="cls-1" x="86.44" y="199.38" width="11.17" height="11.17" transform="translate(296.99 112.93) rotate(90)"/>
      <rect class="cls-1" x="86.44" y="244" width="11.17" height="11.17" transform="translate(341.61 157.56) rotate(90)"/>
      <rect class="cls-1" x="86.44" y="266.32" width="11.17" height="11.17" transform="translate(363.92 179.87) rotate(90)"/>
      <rect class="cls-1" x="108.77" y="188.22" width="11.15" height="11.17" transform="translate(308.14 79.46) rotate(90)"/>
      <rect class="cls-1" x="108.77" y="277.47" width="11.15" height="11.17" transform="translate(397.4 168.71) rotate(90)"/>
      <rect class="cls-1" x="108.77" y="210.53" width="11.15" height="11.17" transform="translate(330.46 101.77) rotate(90)"/>
      <rect class="cls-1" x="108.77" y="255.16" width="11.15" height="11.17" transform="translate(375.08 146.4) rotate(90)"/>
      <rect class="cls-1" x="108.76" y="177.06" width="11.17" height="11.17" transform="translate(296.99 68.3) rotate(90)"/>
      <rect class="cls-1" x="108.76" y="199.38" width="11.17" height="11.17" transform="translate(319.3 90.62) rotate(90)"/>
      <rect class="cls-1" x="108.76" y="221.69" width="11.17" height="11.17" transform="translate(341.61 112.93) rotate(90)"/>
      <rect class="cls-1" x="108.76" y="244" width="11.17" height="11.17" transform="translate(363.92 135.24) rotate(90)"/>
      <rect class="cls-1" x="108.76" y="266.32" width="11.17" height="11.17" transform="translate(386.24 157.56) rotate(90)"/>
      <rect class="cls-1" x="108.76" y="288.63" width="11.17" height="11.17" transform="translate(408.55 179.87) rotate(90)"/>
      <rect class="cls-1" x="131.09" y="210.54" width="11.15" height="11.15" transform="translate(352.78 79.45) rotate(90)"/>
      <rect class="cls-1" x="131.09" y="232.86" width="11.15" height="11.15" transform="translate(375.09 101.77) rotate(90)"/>
      <rect class="cls-1" x="131.09" y="277.48" width="11.15" height="11.15" transform="translate(419.72 146.39) rotate(90)"/>
      <rect class="cls-1" x="131.09" y="299.8" width="11.15" height="11.15" transform="translate(442.03 168.71) rotate(90)"/>
      <rect class="cls-1" x="131.08" y="199.38" width="11.17" height="11.15" transform="translate(341.62 68.29) rotate(90)"/>
      <rect class="cls-1" x="131.08" y="221.7" width="11.17" height="11.15" transform="translate(363.94 90.61) rotate(90)"/>
      <rect class="cls-1" x="131.08" y="244.01" width="11.17" height="11.15" transform="translate(386.25 112.92) rotate(90)"/>
      <rect class="cls-1" x="131.08" y="266.32" width="11.17" height="11.15" transform="translate(408.56 135.23) rotate(90)"/>
      <rect class="cls-1" x="131.08" y="288.64" width="11.17" height="11.15" transform="translate(430.88 157.55) rotate(90)"/>
      <rect class="cls-1" x="131.08" y="310.95" width="11.17" height="11.15" transform="translate(453.19 179.86) rotate(90)"/>
      <rect class="cls-1" x="153.4" y="232.86" width="11.15" height="11.15" transform="translate(397.41 79.45) rotate(90)"/>
      <rect class="cls-1" x="153.4" y="188.23" width="11.15" height="11.15" transform="translate(352.78 34.82) rotate(90)"/>
      <rect class="cls-1" x="153.4" y="143.59" width="11.17" height="11.15" transform="translate(308.14 -9.81) rotate(90)"/>
      <rect class="cls-1" x="153.4" y="54.33" width="11.17" height="11.15" transform="translate(218.89 -99.07) rotate(90)"/>
      <rect class="cls-1" x="153.4" y="98.96" width="11.17" height="11.15" transform="translate(263.51 -54.44) rotate(90)"/>
      <rect class="cls-1" x="153.4" y="322.12" width="11.17" height="11.15" transform="translate(486.67 168.71) rotate(90)"/>
      <rect class="cls-1" x="153.4" y="299.8" width="11.15" height="11.15" transform="translate(464.35 146.39) rotate(90)"/>
      <rect class="cls-1" x="153.4" y="255.17" width="11.15" height="11.15" transform="translate(419.72 101.76) rotate(90)"/>
      <rect class="cls-1" x="153.4" y="43.18" width="11.15" height="11.15" transform="translate(207.73 -110.23) rotate(90)"/>
      <rect class="cls-1" x="153.4" y="65.49" width="11.15" height="11.15" transform="translate(230.04 -87.91) rotate(90)"/>
      <rect class="cls-1" x="153.4" y="87.8" width="11.15" height="11.15" transform="translate(252.36 -65.6) rotate(90)"/>
      <rect class="cls-1" x="153.4" y="110.12" width="11.15" height="11.15" transform="translate(274.67 -43.29) rotate(90)"/>
      <rect class="cls-1" x="153.4" y="132.43" width="11.15" height="11.15" transform="translate(296.99 -20.97) rotate(90)"/>
      <rect class="cls-1" x="153.4" y="154.75" width="11.15" height="11.15" transform="translate(319.3 1.34) rotate(90)"/>
      <rect class="cls-1" x="153.4" y="177.07" width="11.17" height="11.15" transform="translate(341.62 23.67) rotate(90)"/>
      <rect class="cls-1" x="153.4" y="199.38" width="11.17" height="11.15" transform="translate(363.94 45.98) rotate(90)"/>
      <rect class="cls-1" x="153.4" y="221.7" width="11.17" height="11.15" transform="translate(386.25 68.29) rotate(90)"/>
      <rect class="cls-1" x="153.4" y="244.01" width="11.17" height="11.15" transform="translate(408.56 90.61) rotate(90)"/>
      <rect class="cls-1" x="153.4" y="266.32" width="11.17" height="11.15" transform="translate(430.88 112.92) rotate(90)"/>
      <rect class="cls-1" x="153.4" y="288.64" width="11.17" height="11.15" transform="translate(453.19 135.23) rotate(90)"/>
      <rect class="cls-1" x="153.4" y="310.95" width="11.17" height="11.15" transform="translate(475.51 157.55) rotate(90)"/>
      <rect class="cls-1" x="153.4" y="333.28" width="11.15" height="11.15" transform="translate(497.83 179.87) rotate(90)"/>
      <rect class="cls-1" x="175.71" y="143.59" width="11.17" height="11.15" transform="translate(330.46 -32.13) rotate(90)"/>
      <rect class="cls-1" x="175.71" y="322.12" width="11.17" height="11.15" transform="translate(508.99 146.4) rotate(90)"/>
      <rect class="cls-1" x="175.72" y="277.48" width="11.15" height="11.15" transform="translate(464.35 101.76) rotate(90)"/>
      <rect class="cls-1" x="175.72" y="255.17" width="11.15" height="11.15" transform="translate(442.03 79.45) rotate(90)"/>
      <rect class="cls-1" x="175.71" y="344.43" width="11.17" height="11.15" transform="translate(531.3 168.71) rotate(90)"/>
      <rect class="cls-1" x="175.71" y="98.96" width="11.17" height="11.15" transform="translate(285.83 -76.76) rotate(90)"/>
      <rect class="cls-1" x="175.72" y="188.23" width="11.15" height="11.15" transform="translate(375.09 12.51) rotate(90)"/>
      <rect class="cls-1" x="175.72" y="210.54" width="11.15" height="11.15" transform="translate(397.41 34.82) rotate(90)"/>
      <rect class="cls-1" x="175.71" y="54.33" width="11.17" height="11.15" transform="translate(241.2 -121.39) rotate(90)"/>
      <rect class="cls-1" x="175.72" y="43.18" width="11.15" height="11.15" transform="translate(230.04 -132.54) rotate(90)"/>
      <rect class="cls-1" x="175.72" y="65.49" width="11.15" height="11.15" transform="translate(252.36 -110.23) rotate(90)"/>
      <rect class="cls-1" x="175.72" y="87.8" width="11.15" height="11.15" transform="translate(274.67 -87.91) rotate(90)"/>
      <rect class="cls-1" x="175.72" y="110.12" width="11.15" height="11.15" transform="translate(296.99 -65.6) rotate(90)"/>
      <rect class="cls-1" x="175.72" y="132.43" width="11.15" height="11.15" transform="translate(319.3 -43.29) rotate(90)"/>
      <rect class="cls-1" x="175.72" y="154.75" width="11.15" height="11.15" transform="translate(341.61 -20.97) rotate(90)"/>
      <rect class="cls-1" x="175.71" y="177.07" width="11.17" height="11.15" transform="translate(363.94 1.35) rotate(90)"/>
      <rect class="cls-1" x="175.71" y="199.38" width="11.17" height="11.15" transform="translate(386.25 23.67) rotate(90)"/>
      <rect class="cls-1" x="175.71" y="221.7" width="11.17" height="11.15" transform="translate(408.57 45.98) rotate(90)"/>
      <rect class="cls-1" x="175.71" y="244.01" width="11.17" height="11.15" transform="translate(430.88 68.29) rotate(90)"/>
      <rect class="cls-1" x="175.71" y="266.32" width="11.17" height="11.15" transform="translate(453.19 90.61) rotate(90)"/>
      <rect class="cls-1" x="175.71" y="288.64" width="11.17" height="11.15" transform="translate(475.51 112.92) rotate(90)"/>
      <rect class="cls-1" x="175.71" y="310.95" width="11.17" height="11.15" transform="translate(497.82 135.23) rotate(90)"/>
      <rect class="cls-1" x="175.72" y="333.28" width="11.15" height="11.15" transform="translate(520.14 157.56) rotate(90)"/>
      <rect class="cls-1" x="175.72" y="355.59" width="11.15" height="11.15" transform="translate(542.46 179.87) rotate(90)"/>
      <rect class="cls-1" x="198.03" y="188.23" width="11.15" height="11.15" transform="translate(397.41 -9.81) rotate(90)"/>
      <rect class="cls-1" x="198.02" y="54.33" width="11.17" height="11.15" transform="translate(263.51 -143.7) rotate(90)"/>
      <rect class="cls-1" x="198.02" y="98.96" width="11.17" height="11.15" transform="translate(308.14 -99.07) rotate(90)"/>
      <rect class="cls-1" x="198.03" y="277.48" width="11.15" height="11.15" transform="translate(486.66 79.45) rotate(90)"/>
      <rect class="cls-1" x="198.02" y="143.59" width="11.17" height="11.15" transform="translate(352.77 -54.44) rotate(90)"/>
      <rect class="cls-1" x="198.02" y="344.43" width="11.17" height="11.15" transform="translate(553.61 146.4) rotate(90)"/>
      <rect class="cls-1" x="198.03" y="210.54" width="11.15" height="11.15" transform="translate(419.72 12.51) rotate(90)"/>
      <rect class="cls-1" x="198.02" y="322.12" width="11.17" height="11.15" transform="translate(531.3 124.09) rotate(90)"/>
      <rect class="cls-1" x="198.03" y="255.17" width="11.15" height="11.15" transform="translate(464.35 57.13) rotate(90)"/>
      <rect class="cls-1" x="198.03" y="43.18" width="11.15" height="11.15" transform="translate(252.36 -154.86) rotate(90)"/>
      <rect class="cls-1" x="198.03" y="65.49" width="11.15" height="11.15" transform="translate(274.67 -132.54) rotate(90)"/>
      <rect class="cls-1" x="198.03" y="87.8" width="11.15" height="11.15" transform="translate(296.99 -110.23) rotate(90)"/>
      <rect class="cls-1" x="198.03" y="110.12" width="11.15" height="11.15" transform="translate(319.3 -87.91) rotate(90)"/>
      <rect class="cls-1" x="198.03" y="132.43" width="11.15" height="11.15" transform="translate(341.61 -65.6) rotate(90)"/>
      <rect class="cls-1" x="198.03" y="154.75" width="11.15" height="11.15" transform="translate(363.93 -43.29) rotate(90)"/>
      <rect class="cls-1" x="198.02" y="177.07" width="11.17" height="11.15" transform="translate(386.25 -20.96) rotate(90)"/>
      <rect class="cls-1" x="198.02" y="199.38" width="11.17" height="11.15" transform="translate(408.57 1.35) rotate(90)"/>
      <rect class="cls-1" x="198.02" y="221.7" width="11.17" height="11.15" transform="translate(430.88 23.67) rotate(90)"/>
      <rect class="cls-1" x="198.02" y="244.01" width="11.17" height="11.15" transform="translate(453.19 45.98) rotate(90)"/>
      <rect class="cls-1" x="198.02" y="266.32" width="11.17" height="11.15" transform="translate(475.51 68.29) rotate(90)"/>
      <rect class="cls-1" x="198.02" y="288.64" width="11.17" height="11.15" transform="translate(497.82 90.61) rotate(90)"/>
      <rect class="cls-1" x="198.02" y="310.95" width="11.17" height="11.15" transform="translate(520.13 112.92) rotate(90)"/>
      <rect class="cls-1" x="198.03" y="333.28" width="11.15" height="11.15" transform="translate(542.46 135.24) rotate(90)"/>
      <rect class="cls-1" x="198.03" y="355.59" width="11.15" height="11.15" transform="translate(564.77 157.56) rotate(90)"/>
      <rect class="cls-1" x="220.34" y="322.12" width="11.17" height="11.15" transform="translate(553.61 101.77) rotate(90)"/>
      <rect class="cls-1" x="220.35" y="255.17" width="11.15" height="11.15" transform="translate(486.66 34.82) rotate(90)"/>
      <rect class="cls-1" x="220.35" y="299.8" width="11.15" height="11.15" transform="translate(531.29 79.45) rotate(90)"/>
      <rect class="cls-1" x="220.35" y="188.23" width="11.15" height="11.15" transform="translate(419.72 -32.12) rotate(90)"/>
      <rect class="cls-1" x="220.35" y="232.86" width="11.15" height="11.15" transform="translate(464.35 12.51) rotate(90)"/>
      <rect class="cls-1" x="220.34" y="54.33" width="11.17" height="11.15" transform="translate(285.83 -166.01) rotate(90)"/>
      <rect class="cls-1" x="220.34" y="98.96" width="11.17" height="11.15" transform="translate(330.46 -121.39) rotate(90)"/>
      <rect class="cls-1" x="220.34" y="143.59" width="11.17" height="11.15" transform="translate(375.09 -76.76) rotate(90)"/>
      <rect class="cls-1" x="220.35" y="43.18" width="11.15" height="11.15" transform="translate(274.67 -177.17) rotate(90)"/>
      <rect class="cls-1" x="220.35" y="65.49" width="11.15" height="11.15" transform="translate(296.99 -154.86) rotate(90)"/>
      <rect class="cls-1" x="220.35" y="87.8" width="11.15" height="11.15" transform="translate(319.3 -132.54) rotate(90)"/>
      <rect class="cls-1" x="220.35" y="110.12" width="11.15" height="11.15" transform="translate(341.61 -110.23) rotate(90)"/>
      <rect class="cls-1" x="220.35" y="132.43" width="11.15" height="11.15" transform="translate(363.93 -87.91) rotate(90)"/>
      <rect class="cls-1" x="220.35" y="154.75" width="11.15" height="11.15" transform="translate(386.24 -65.6) rotate(90)"/>
      <rect class="cls-1" x="220.34" y="177.07" width="11.17" height="11.15" transform="translate(408.57 -43.28) rotate(90)"/>
      <rect class="cls-1" x="220.34" y="199.38" width="11.17" height="11.15" transform="translate(430.88 -20.96) rotate(90)"/>
      <rect class="cls-1" x="220.34" y="221.7" width="11.17" height="11.15" transform="translate(453.19 1.35) rotate(90)"/>
      <rect class="cls-1" x="220.34" y="244.01" width="11.17" height="11.15" transform="translate(475.51 23.66) rotate(90)"/>
      <rect class="cls-1" x="220.34" y="266.32" width="11.17" height="11.15" transform="translate(497.82 45.98) rotate(90)"/>
      <rect class="cls-1" x="220.34" y="288.64" width="11.17" height="11.15" transform="translate(520.13 68.29) rotate(90)"/>
      <rect class="cls-1" x="220.34" y="310.95" width="11.17" height="11.15" transform="translate(542.45 90.61) rotate(90)"/>
      <rect class="cls-1" x="220.35" y="333.28" width="11.15" height="11.15" transform="translate(564.77 112.93) rotate(90)"/>
      <rect class="cls-1" x="242.66" y="299.8" width="11.15" height="11.15" transform="translate(553.61 57.13) rotate(90)"/>
      <rect class="cls-1" x="242.66" y="277.48" width="11.15" height="11.15" transform="translate(531.29 34.82) rotate(90)"/>
      <rect class="cls-1" x="242.66" y="210.54" width="11.15" height="11.15" transform="translate(464.35 -32.12) rotate(90)"/>
      <rect class="cls-1" x="242.66" y="232.86" width="11.15" height="11.15" transform="translate(486.67 -9.81) rotate(90)"/>
      <rect class="cls-1" x="242.65" y="199.38" width="11.17" height="11.15" transform="translate(453.19 -43.28) rotate(90)"/>
      <rect class="cls-1" x="242.65" y="221.7" width="11.17" height="11.15" transform="translate(475.51 -20.96) rotate(90)"/>
      <rect class="cls-1" x="242.65" y="244.01" width="11.17" height="11.15" transform="translate(497.82 1.35) rotate(90)"/>
      <rect class="cls-1" x="242.65" y="266.32" width="11.17" height="11.15" transform="translate(520.13 23.66) rotate(90)"/>
      <rect class="cls-1" x="242.65" y="288.64" width="11.17" height="11.15" transform="translate(542.45 45.98) rotate(90)"/>
      <rect class="cls-1" x="242.65" y="310.95" width="11.17" height="11.15" transform="translate(564.76 68.29) rotate(90)"/>
      <rect class="cls-1" x="264.98" y="255.17" width="11.15" height="11.15" transform="translate(531.29 -9.81) rotate(90)"/>
      <rect class="cls-1" x="264.98" y="210.54" width="11.15" height="11.15" transform="translate(486.67 -54.43) rotate(90)"/>
      <rect class="cls-1" x="264.98" y="277.48" width="11.15" height="11.15" transform="translate(553.61 12.51) rotate(90)"/>
      <rect class="cls-1" x="264.98" y="188.23" width="11.15" height="11.15" transform="translate(464.35 -76.75) rotate(90)"/>
      <rect class="cls-1" x="264.97" y="177.07" width="11.17" height="11.15" transform="translate(453.19 -87.91) rotate(90)"/>
      <rect class="cls-1" x="264.97" y="199.38" width="11.17" height="11.15" transform="translate(475.51 -65.59) rotate(90)"/>
      <rect class="cls-1" x="264.97" y="221.7" width="11.17" height="11.15" transform="translate(497.82 -43.28) rotate(90)"/>
      <rect class="cls-1" x="264.97" y="244.01" width="11.17" height="11.15" transform="translate(520.13 -20.97) rotate(90)"/>
      <rect class="cls-1" x="264.97" y="266.32" width="11.17" height="11.15" transform="translate(542.45 1.35) rotate(90)"/>
      <rect class="cls-1" x="264.97" y="288.64" width="11.17" height="11.15" transform="translate(564.76 23.66) rotate(90)"/>
      <rect class="cls-1" x="287.3" y="255.16" width="11.15" height="11.17" transform="translate(553.61 -32.13) rotate(90)"/>
      <rect class="cls-1" x="287.3" y="188.22" width="11.15" height="11.17" transform="translate(486.67 -99.07) rotate(90)"/>
      <rect class="cls-1" x="287.29" y="177.06" width="11.17" height="11.17" transform="translate(475.52 -110.23) rotate(90)"/>
      <rect class="cls-1" x="287.29" y="199.38" width="11.17" height="11.17" transform="translate(497.83 -87.91) rotate(90)"/>
      <rect class="cls-1" x="287.29" y="244" width="11.17" height="11.17" transform="translate(542.46 -43.29) rotate(90)"/>
      <rect class="cls-1" x="287.29" y="266.32" width="11.17" height="11.17" transform="translate(564.77 -20.97) rotate(90)"/>
    </g>
  </g>
</svg>