<?xml version="1.0" encoding="UTF-8"?>
<svg id="Layer_1" data-name="Layer 1" xmlns="http://www.w3.org/2000/svg" xmlns:xlink="http://www.w3.org/1999/xlink" viewBox="0 0 1412.61 752.69">
  <defs>
    <style>
      .cls-1, .cls-2 {
        fill: #fff;
      }

      .cls-2 {
        stroke: #fff;
        stroke-linecap: round;
        stroke-linejoin: round;
        stroke-width: 1.87px;
      }
    </style>
    <filter id="drop-shadow-1" x="-5825.51" y="-426.88" width="6098.59" height="6918.73" filterUnits="userSpaceOnUse">
      <feOffset dx="12.65" dy="9.84"/>
      <feGaussianBlur result="blur" stdDeviation="84.36"/>
      <feFlood flood-color="#050505" flood-opacity=".35"/>
      <feComposite in2="blur" operator="in"/>
      <feComposite in="SourceGraphic"/>
    </filter>
    <filter id="drop-shadow-2" x="-5825.51" y="-426.88" width="6098.59" height="6918.73" filterUnits="userSpaceOnUse">
      <feOffset dx="12.65" dy="9.84"/>
      <feGaussianBlur result="blur-2" stdDeviation="84.36"/>
      <feFlood flood-color="#050505" flood-opacity=".35"/>
      <feComposite in2="blur-2" operator="in"/>
      <feComposite in="SourceGraphic"/>
    </filter>
    <filter id="drop-shadow-3" x="-5825.51" y="-426.88" width="6098.59" height="6918.73" filterUnits="userSpaceOnUse">
      <feOffset dx="12.65" dy="9.84"/>
      <feGaussianBlur result="blur-3" stdDeviation="84.36"/>
      <feFlood flood-color="#050505" flood-opacity=".35"/>
      <feComposite in2="blur-3" operator="in"/>
      <feComposite in="SourceGraphic"/>
    </filter>
    <filter id="drop-shadow-4" x="-5825.51" y="-426.88" width="6098.59" height="6918.73" filterUnits="userSpaceOnUse">
      <feOffset dx="12.65" dy="9.84"/>
      <feGaussianBlur result="blur-4" stdDeviation="84.36"/>
      <feFlood flood-color="#050505" flood-opacity=".35"/>
      <feComposite in2="blur-4" operator="in"/>
      <feComposite in="SourceGraphic"/>
    </filter>
    <filter id="drop-shadow-5" x="-5931.37" y="-427.16" width="6204.95" height="6919.02" filterUnits="userSpaceOnUse">
      <feOffset dx="12.65" dy="9.84"/>
      <feGaussianBlur result="blur-5" stdDeviation="84.36"/>
      <feFlood flood-color="#050505" flood-opacity=".35"/>
      <feComposite in2="blur-5" operator="in"/>
      <feComposite in="SourceGraphic"/>
    </filter>
  </defs>
  <line class="cls-2" x1="142.38" y1="501.96" x2="1270.23" y2="501.96"/>
  <g>
    <path class="cls-1" d="M72.54,153.37l3.61-4.59c8.19,9.67,20.64,16.38,36.87,16.38s34.24-6.72,34.24-23.76c0-14.75-17.2-19.01-33.75-23.27-18.68-4.75-36.21-10.98-36.21-28.84s17.7-27.36,35.72-27.36c10.81,0,23.1,2.29,33.75,12.12l-3.28,4.92c-9.5-8.85-21.14-10.81-30.48-10.81-14.09,0-29,6.88-29,21.14s15.07,18.02,30.97,22.28c19.17,5.08,39.16,10.98,39.16,29.82,0,21.46-21.46,29.98-41.13,29.98-18.51,0-32.11-7.86-40.47-18.02Z"/>
    <path class="cls-1" d="M206.08,69.48h-41.78v-5.9h89.95v5.9h-41.62v100.28h-6.55v-100.28Z"/>
    <path class="cls-1" d="M299.64,62.76h4.75l52.1,106.99h-6.72l-11.31-23.1h-72.75l-11.31,23.1h-6.88l52.1-106.99ZM335.85,140.92l-27.85-56.69c-4.26-8.68-5.9-12.94-5.9-12.94,0,0-1.8,4.26-6.06,12.94l-27.69,56.69h67.51Z"/>
    <path class="cls-1" d="M391.56,69.48h-41.78v-5.9h89.95v5.9h-41.62v100.28h-6.55v-100.28Z"/>
    <path class="cls-1" d="M457.26,63.58h6.55v106.17h-6.55V63.58Z"/>
    <path class="cls-1" d="M486.42,116.67c0-30.64,23.92-54.73,54.72-54.73s54.73,24.09,54.73,54.73-23.92,54.73-54.73,54.73-54.72-24.09-54.72-54.73ZM588.99,116.67c0-27.04-20.81-48.5-47.84-48.5s-47.84,21.46-47.84,48.5,20.81,48.5,47.84,48.5,47.84-21.46,47.84-48.5Z"/>
    <path class="cls-1" d="M618.32,63.58h6.23l69.64,87.82c2.79,3.6,5.73,8.52,5.73,8.52V63.58h6.55v106.17h-6.55l-69.31-87.17c-3.11-3.77-5.74-8.52-5.74-8.52v95.69h-6.55V63.58Z"/>
    <path class="cls-1" d="M733.83,63.58h78.16v5.9h-71.6v39.49h66.52v5.9h-66.52v48.99h74.22v5.9h-80.78V63.58Z"/>
    <path class="cls-1" d="M835.09,63.58h6.23l69.63,87.82c2.79,3.6,5.74,8.52,5.74,8.52V63.58h6.55v106.17h-6.55l-69.31-87.17c-3.11-3.77-5.74-8.52-5.74-8.52v95.69h-6.55V63.58Z"/>
    <path class="cls-1" d="M950.6,63.58h6.55v100.28h70.95v5.9h-77.5V63.58Z"/>
    <path class="cls-1" d="M1091.19,62.76h4.75l52.1,106.99h-6.72l-11.31-23.1h-72.75l-11.3,23.1h-6.88l52.1-106.99ZM1127.4,140.92l-27.85-56.69c-4.26-8.68-5.9-12.94-5.9-12.94,0,0-1.8,4.26-6.06,12.94l-27.69,56.69h67.51Z"/>
    <path class="cls-1" d="M1159.18,127.64V63.58h6.55v63.9c0,22.28,12.12,37.69,36.37,37.69s36.21-15.4,36.21-37.69v-63.9h6.55v64.06c0,25.4-14.91,43.75-42.77,43.75s-42.93-18.35-42.93-43.75Z"/>
    <path class="cls-1" d="M1270.6,63.58h74.22v5.9h-67.67v39.49h55.71v5.9h-55.71v54.89h-6.55V63.58Z"/>
  </g>
  <g>
    <path class="cls-1" d="M373.22,432.74c-2.46-.59-5.62-1.82-9.46-3.69-7-3.45-12.91-8.5-17.73-15.15-4.83-6.65-8.87-15.39-12.12-26.23-1.77-5.71-2.86-8.77-3.25-9.16-.69-.79-3.55,6.01-8.57,20.39-1.18,3.35-2.42,5.64-3.69,6.87-1.28,1.23-3.15,1.94-5.62,2.14-2.66.3-4.85.12-6.58-.52-1.72-.64-2.73-1.65-3.03-3.03-1.08-4.14-.22-11.87,2.59-23.2,2.81-11.33,6.82-23.45,12.04-36.35,7.78-19.41,18.57-41.23,32.36-65.47,13.79-24.24,24.58-40.34,32.36-48.32,2.17-2.27,3.82-3.74,4.95-4.43,1.13-.69,2.73-1.28,4.8-1.77,2.66-.49,5.49-.54,8.5-.15,3,.4,5.44,1.18,7.32,2.36,2.17,1.38,2.39,4.02.66,7.91-1.72,3.89-7.46,13.82-17.22,29.78-8.87,14.48-17.68,29.24-26.45,44.26-8.77,15.02-13.15,22.93-13.15,23.72,1.28-1.08,2.49-2.14,3.62-3.18,1.13-1.03,2.34-2.19,3.62-3.47,11.92-11.43,21.82-16.7,29.7-15.81,8.57,1.09,12.86,5.76,12.86,14.04,0,6.5-1.82,13.3-5.47,20.39-3.65,7.09-8.72,13.74-15.22,19.95-9.95,9.36-19.85,14.04-29.7,14.04-2.76.2-4.14.54-4.14,1.03.3.69,2.27,5.22,5.91,13.6,3.64,8.37,6.35,14.14,8.13,17.29,3.74,6.21,7.86,10.86,12.34,13.97,4.48,3.1,8.69,4.11,12.63,3.03,1.28-.3,2.49-.42,3.62-.37,1.13.05,2.04.22,2.73.52.69.3.98.69.89,1.18-.59,1.67-3.13,2.93-7.61,3.77-4.48.84-8.7.86-12.63.07ZM346.92,367.27c4.43-2.07,9.7-5.89,15.81-11.45,6.11-5.56,10.94-10.96,14.48-16.18,2.17-3.25,4.06-6.67,5.69-10.27,1.62-3.6,2.63-6.53,3.03-8.79l.59-3.4-3.4,1.77c-2.17,1.08-5.27,3.25-9.31,6.5-3.65,2.96-9.36,8.4-17.14,16.33-7.78,7.93-13.45,14.11-16.99,18.55l-5.17,6.5,3.25.89c2.17.69,3.72,1.01,4.65.96.94-.05,2.44-.52,4.51-1.4Z"/>
    <path class="cls-1" d="M459.53,412.49c-2.27-.89-3.94-1.9-5.02-3.03-1.08-1.13-1.97-2.98-2.66-5.54-1.68-5.81-1.16-14.7,1.55-26.67,2.71-11.97,6.97-24.01,12.78-36.13,3.35-6.89,4.88-10.49,4.58-10.79-.2-.2-2.05,1.43-5.54,4.88-3.5,3.45-7.34,7.39-11.53,11.82-4.19,4.43-7.17,7.83-8.94,10.2-4.04,5.02-8.5,11.23-13.37,18.62-4.88,7.39-8.99,14.14-12.34,20.25-3.94,7.19-5.91,11.06-5.91,11.6s-.64,1.4-1.92,2.59c-1.28,1.18-2.91,1.75-4.88,1.7-1.97-.05-3.84-.66-5.62-1.85-3.84-2.56-5.64-8.08-5.39-16.55.25-8.47,2.59-19.36,7.02-32.66,1.97-6.21,5.69-15.02,11.16-26.45,5.47-11.43,8.84-17.44,10.12-18.03,2.36-1.28,5.57-1.65,9.61-1.11,4.04.54,7.68,1.8,10.94,3.77,2.46,1.58,3.7,3.1,3.7,4.58s-1.28,4.24-3.84,8.28c-7.49,11.63-14.39,23.99-20.69,37.09-5.52,11.43-7.68,16.65-6.5,15.66.1-.1.3-.34.59-.74.69-.89,2.81-4.23,6.35-10.05,5.62-9.16,11.77-17.83,18.47-26.01,6.7-8.18,13-14.68,18.92-19.51,3.45-2.86,7.49-5.59,12.12-8.2,4.63-2.61,8.03-4.06,10.2-4.36,1.87-.3,4.53-.02,7.98.81,3.45.84,6.21,1.95,8.28,3.32,2.56,1.58,3.82,3.1,3.77,4.58-.05,1.48-1.36,4.19-3.92,8.13-4.73,7.39-10.03,16.58-15.89,27.56-5.86,10.99-9.48,18.5-10.86,22.54-.4,1.28-.49,1.87-.3,1.77.3-.2,2.56-3.74,6.8-10.64,5.62-9.16,11.8-17.83,18.55-26.01,6.75-8.18,13.03-14.68,18.84-19.51,3.55-2.86,7.61-5.59,12.19-8.2,4.58-2.61,7.95-4.06,10.12-4.36,1.97-.3,4.66-.02,8.05.81,3.4.84,6.18,1.95,8.35,3.32,2.46,1.58,3.69,3.1,3.69,4.58s-1.33,4.19-3.99,8.13c-7.98,12.41-15.03,25.05-21.13,37.91-6.11,12.86-10.15,23.57-12.12,32.14l-.59,2.66,2.07-1.48c2.56-1.87,8.25-7.76,17.07-17.66,8.82-9.9,16.72-19.29,23.72-28.15,2.56-3.35,4.38-5.54,5.47-6.58,1.08-1.03,2.07-1.5,2.96-1.4,1.28.1,2.02.44,2.22,1.03.39.99-5.27,8.82-16.99,23.5-11.73,14.68-20.49,25.02-26.3,31.03-3.35,3.35-5.94,5.54-7.76,6.58-1.82,1.03-3.82,1.35-5.98.96-5.03-.89-8.38-3.65-10.05-8.28-1.97-5.52-1.6-14.41,1.11-26.67,2.71-12.27,7.07-24.65,13.08-37.17,3.25-6.89,4.78-10.49,4.58-10.79-.2-.2-2.07,1.43-5.62,4.88-3.55,3.45-7.39,7.39-11.53,11.82-4.14,4.43-7.14,7.83-9.01,10.2-10.54,13.3-21.23,30.2-32.07,50.69-1.68,3.15-2.91,4.92-3.69,5.32-.79.39-2.46.15-5.02-.74Z"/>
    <path class="cls-1" d="M648.83,416.33c-3.55-.89-6.01-2.42-7.39-4.58-2.66-4.04-.64-19.63,6.06-46.77,6.7-27.14,15.37-54.8,26.01-82.98,4.04-10.74,6.06-16.21,6.06-16.4,0-.1-.29.03-.89.37-.59.35-1.4.84-2.44,1.48-1.04.64-2.19,1.36-3.47,2.14-4.63,3.06-9.24,5.25-13.82,6.58-4.58,1.33-7.81,1.4-9.68.22-.49-.39-.74-.67-.74-.81s.25-.42.74-.81c.79-.49,1.62-.74,2.51-.74,1.08,0,3.35-1.21,6.8-3.62,3.45-2.41,6.7-5,9.75-7.76,11.82-10.84,21.67-23.2,29.56-37.09,1.77-3.05,3.77-5.1,5.98-6.13,2.22-1.03,5.69-1.55,10.42-1.55,9.55,0,14.33,2.17,14.33,6.5,0,1.09-2.46,7.19-7.39,18.32-11.73,26.4-21.38,51.21-28.96,74.41-7.59,23.2-14.04,47.51-19.36,72.93-2.07,10.05-3.6,16.35-4.58,18.92-.99,2.56-2.61,4.53-4.88,5.91-1.38.79-3.69,1.35-6.95,1.7-3.25.34-5.81.27-7.68-.22Z"/>
    <path class="cls-1" d="M835.03,416.04c-3.15-.89-5.37-2.12-6.65-3.69-1.28-1.58-1.92-3.94-1.92-7.09,0-9.07,3.3-26.06,9.9-50.98,2.17-8.08,3.15-12.27,2.96-12.56-.29-.3-5.67-.1-16.11.59-10.44.69-18.47,1.38-24.09,2.07-9.95,1.18-18.94,2.73-26.97,4.65-8.03,1.92-13.57,3.82-16.62,5.69-1.18.69-2.22,1.11-3.1,1.26-.89.15-2.27.07-4.14-.22-2.86-.3-5.96-1.3-9.31-3.03-3.35-1.72-5.96-3.57-7.83-5.54-1.38-1.67-2.24-3-2.59-3.99-.34-.98,0-1.94,1.03-2.88,1.03-.94,2.71-1.8,5.02-2.59,2.31-.79,5.69-1.72,10.12-2.81,5.52-1.28,9.68-2.73,12.49-4.36s10.47-6.97,22.98-16.03c21.97-15.96,43.27-32.83,63.91-50.61,20.64-17.78,33.77-30.56,39.38-38.35,3.35-4.73,6.35-7.83,9.01-9.31,2.66-1.48,5.76-1.72,9.31-.74,2.07.59,4.53,1.58,7.39,2.96,2.86,1.38,4.53,2.42,5.02,3.1.59.99.49,2.66-.29,5.02-.79,2.36-2.96,7.59-6.5,15.66-4.93,11.13-9.07,20.84-12.41,29.11-4.83,12.12-9.63,25.17-14.41,39.16-4.78,13.99-6.92,21.23-6.43,21.72.3.3,3.3,1.18,9.01,2.66,4.43,1.09,8.4,2.39,11.9,3.92,3.5,1.53,6.11,3.06,7.83,4.58,1.72,1.53,2.29,2.78,1.7,3.77-.39.59-1.23.86-2.51.81-1.28-.05-2.42-.47-3.4-1.26-.89-.59-3.57-1.3-8.05-2.14-4.48-.84-9.19-1.45-14.11-1.85l-5.76-.59-1.77,5.62c-2.76,9.66-6.06,23.64-9.9,41.97-2.07,9.95-3.6,16.23-4.58,18.84-.99,2.61-2.61,4.56-4.88,5.84-1.38.89-3.69,1.5-6.95,1.85-3.25.34-5.81.27-7.68-.22ZM820.54,327.96h23.2l5.91-18.03c4.04-12.02,7.73-22.41,11.08-31.18,3.35-8.77,5.03-13.3,5.03-13.6s-1.31.44-3.92,2.22c-2.61,1.77-5.98,4.24-10.12,7.39-4.14,3.15-8.28,6.41-12.41,9.75-18.92,15.17-35.32,27.39-49.21,36.65-6.6,4.43-10.17,6.92-10.71,7.46s2.31.59,8.57.15c6.25-.44,17.12-.71,32.58-.81Z"/>
    <path class="cls-1" d="M955.75,408.35c-2.96-.3-6.75-1.11-11.38-2.44-4.63-1.33-8.33-2.64-11.08-3.92-3.35-1.48-6.55-3.55-9.61-6.21-3.05-2.66-5.37-5.27-6.95-7.83-1.18-2.17-1.9-4.63-2.14-7.39-.25-2.76.12-4.63,1.11-5.62.89-.89,2.17-1.53,3.84-1.92,1.67-.39,3.05-.39,4.14,0,.69.3,1.16.72,1.4,1.26.24.54.37,1.65.37,3.33,0,4.83,2.34,9.06,7.02,12.71,4.68,3.64,10.07,5.47,16.18,5.47s13.23-1.87,22.24-5.62c9.01-3.75,17.17-8.32,24.46-13.74,4.93-3.64,11.01-9.11,18.25-16.4,7.24-7.29,12.49-13.3,15.74-18.03,8.87-12.51,14.36-23.69,16.48-33.55,2.12-9.85.52-16.6-4.8-20.25-.99-.69-2.24-1.11-3.77-1.26-1.53-.15-4.71-.22-9.53-.22s-8.18.15-10.34.44c-2.17.3-4.88.89-8.13,1.77-20.3,6.21-33.05,14.83-38.27,25.86-1.09,2.07-1.9,3.42-2.44,4.06-.54.64-1.26.96-2.14.96-1.48,0-2.66-.34-3.55-1.03-.59-.49-.84-1.21-.74-2.14.1-.94.59-3.18,1.48-6.72,1.18-5.12,5.22-18.77,12.12-40.93,6.11-20,9.78-32.26,11.01-36.8,1.23-4.53,1.75-8.13,1.55-10.79l-.3-4.29,2.81-.3c1.77-.2,5.62.44,11.53,1.92,7.39,1.77,14.06,3.01,20.02,3.69,5.96.69,13.62,1.13,22.98,1.33,24.24.69,42.61-1.63,55.12-6.95,2.86-1.18,4.63-1.82,5.32-1.92.69-.1,1.48.25,2.36,1.03l1.77,1.48-2.07,2.22c-1.28,1.38-3.92,3.01-7.91,4.88-3.99,1.87-8.15,3.45-12.49,4.73-8.87,2.56-19.51,4.43-31.92,5.62s-23.99,1.38-34.73.59c-8.67-.49-13.2-.54-13.6-.15-.69.59-6.55,13.45-17.58,38.57-5.62,12.81-8.38,19.29-8.28,19.43.1.15,1.38-.57,3.84-2.14,6.4-3.94,14.28-7.14,23.64-9.61,3.35-.89,6.18-1.48,8.5-1.77,2.31-.3,5.93-.44,10.86-.44s8.55.12,10.57.37c2.02.25,4.41.86,7.17,1.85,7.49,2.46,13.54,6.26,18.18,11.38,3.94,4.34,6.35,9.8,7.24,16.4.89,6.6.34,13.6-1.63,20.98-1.97,7.39-5.35,15.05-10.12,22.98-4.78,7.93-10.67,15.39-17.66,22.39-11.73,11.82-25.25,20.64-40.57,26.45-15.32,5.81-30.52,7.88-45.59,6.21Z"/>
  </g>
  <g>
    <g>
      <path class="cls-1" d="M282.19,682.72c28.21-20.82,47.02-40.73,47.02-57.49,0-11.92-9.4-19.38-20.84-19.38-9.91,0-16.77,4.98-23,12.31l-3.05-3.54c7.62-9.43,16.9-13.62,26.43-13.62,16.01,0,25.67,10.87,25.67,23.97,0,21.48-27.19,44.92-44.73,57.49h47.27v4.71h-54.77v-4.45Z"/>
      <path class="cls-1" d="M353.87,679.7l2.42-3.93c1.52,1.44,9.28,7.99,22.24,7.99,13.6,0,23.38-10.08,23.38-22.66s-10.29-21.61-23.76-21.61c-9.78,0-16.77,4.58-19.57,6.94l-3.05-2.23v-41.91h46.64v4.58h-41.81v32.87c4.83-2.88,10.8-4.98,18.68-4.98,15.88,0,28.08,10.87,28.08,26.32s-12.07,27.37-28.59,27.37c-13.72,0-21.73-6.02-24.65-8.77Z"/>
      <path class="cls-1" d="M535.96,602.3h30.24c25.92,0,42.32,19.25,42.32,42.43s-16.39,42.43-42.32,42.43h-30.24v-84.87ZM565.44,682.45c22.75,0,37.87-16.11,37.87-37.72s-15.12-37.72-37.87-37.72h-24.4v75.44h24.4Z"/>
      <path class="cls-1" d="M626.06,602.3h60.62v4.71h-55.53v31.56h51.59v4.71h-51.59v39.16h57.57v4.71h-62.65v-84.87Z"/>
      <path class="cls-1" d="M777.41,674.2l3.81-3.01c1.02,2.09,6.86,12.31,19.57,12.31,14.36,0,24.27-9.69,24.27-29.86v-51.34h5.08v51.34c0,23.71-12.2,34.84-29.35,34.84-13.72,0-21.35-9.95-23.38-14.28Z"/>
      <path class="cls-1" d="M848.95,653.51v-51.21h5.08v51.08c0,17.81,9.4,30.12,28.21,30.12s28.08-12.31,28.08-30.12v-51.08h5.08v51.21c0,20.3-11.56,34.97-33.17,34.97s-33.29-14.67-33.29-34.97Z"/>
      <path class="cls-1" d="M935.36,602.3h4.83l54.01,70.2c2.16,2.88,4.45,6.81,4.45,6.81v-77.01h5.08v84.87h-5.08l-53.75-69.67c-2.42-3.01-4.45-6.81-4.45-6.81v76.48h-5.08v-84.87Z"/>
      <path class="cls-1" d="M1024.95,602.3h5.08v84.87h-5.08v-84.87Z"/>
      <path class="cls-1" d="M1047.57,644.74c0-24.49,18.55-43.74,42.44-43.74s42.44,19.25,42.44,43.74-18.55,43.74-42.44,43.74-42.44-19.25-42.44-43.74ZM1127.12,644.74c0-21.61-16.14-38.77-37.11-38.77s-37.11,17.16-37.11,38.77,16.14,38.77,37.11,38.77,37.11-17.16,37.11-38.77Z"/>
    </g>
    <ellipse class="cls-1" cx="475.35" cy="648.6" rx="7.32" ry="7.54"/>
    <ellipse class="cls-1" cx="742.51" cy="648.6" rx="7.32" ry="7.54"/>
  </g>
</svg>